<?xml version="1.0" encoding="UTF-8"?>
<svg id="Capa_2" data-name="Capa 2" xmlns="http://www.w3.org/2000/svg" viewBox="0 0 272.01 307.47">
  <defs>
    <style>
      .cls-1, .cls-2, .cls-3, .cls-4 {
        fill: #1d1d1b;
      }

      .cls-5 {
        fill: #f39200;
      }

      .cls-5, .cls-2, .cls-6 {
        stroke-width: 3px;
      }

      .cls-5, .cls-2, .cls-6, .cls-3 {
        stroke: #1d1d1b;
        stroke-miterlimit: 10;
      }

      .cls-7, .cls-6 {
        fill: #fff;
      }

      .cls-8 {
        fill: #f9b233;
      }

      .cls-3 {
        stroke-width: 4px;
      }

      .cls-9 {
        fill: #e6332a;
      }

      .cls-9, .cls-10, .cls-11, .cls-4 {
        font-family: MyriadPro-Regular, 'Myriad Pro';
      }

      .cls-9, .cls-4 {
        font-size: 44.46px;
      }

      .cls-10 {
        fill: #1d71b8;
        font-size: 41.69px;
      }

      .cls-11 {
        fill: #3aaa35;
        font-size: 40.67px;
      }
    </style>
  </defs>
  <g id="logo_iker">
    <rect class="cls-8" x="21.62" y="33.01" width="233.11" height="247.86"/>
    <g>
      <path class="cls-6" d="M268.31,76.69c-43.1,22.1-86.21,44.21-129.31,66.31l.29.15-.78,161.78c43.34-23.65,86.67-47.3,130.01-70.95-.07-52.43-.14-104.86-.21-157.29Z"/>
      <polygon class="cls-6" points="139 142.68 3.7 72.5 2.92 234.63 137.87 304.62 138.18 304.78 138.5 304.95 138.51 304.61 139.29 142.83 139 142.68"/>
      <path class="cls-5" d="M268.84,76.81C224.17,51.78,179.49,26.75,134.81,1.71,90.95,25.4,47.08,49.08,3.21,72.77c45.48,23.51,90.95,47.02,136.43,70.53,43.07-22.16,86.14-44.32,129.2-66.48Z"/>
    </g>
    <path class="cls-6" d="M3.91,129.1c44.8,23.12,89.59,46.24,134.39,69.36"/>
    <path class="cls-6" d="M4.02,181.28c44.72,22.48,89.44,44.96,134.16,67.44"/>
    <path class="cls-2" d="M139.83,198.46c42.87-22.12,85.73-44.24,128.6-66.36"/>
    <text class="cls-9" transform="translate(193.98 205.91)"><tspan x="0" y="0">1</tspan></text>
    <text class="cls-10" transform="translate(150.38 282.44)"><tspan x="0" y="0">2</tspan></text>
    <text class="cls-11" transform="translate(240.11 129.39)"><tspan x="0" y="0">3</tspan></text>
    <path class="cls-6" d="M181.94,120.98l.94,160.53"/>
    <path class="cls-6" d="M226.5,98.02c.04,53.28.09,106.56.13,159.84"/>
    <path class="cls-2" d="M138.4,249.22c43.05-21.69,86.11-43.38,129.16-65.08"/>
    <g>
      <ellipse class="cls-1" cx="204.13" cy="125.7" rx="1.43" ry="3.69"/>
      <g>
        <circle class="cls-3" cx="204.13" cy="138.95" r="11.7"/>
        <ellipse class="cls-1" cx="204.13" cy="152.04" rx="1.43" ry="3.69"/>
        <ellipse class="cls-1" cx="217.53" cy="137.57" rx="4.41" ry="1.37"/>
        <ellipse class="cls-1" cx="191.3" cy="137.85" rx="4.41" ry="1.37"/>
        <ellipse class="cls-1" cx="193.97" cy="129.39" rx="1.41" ry="3.25" transform="translate(-38.71 114.32) rotate(-30)"/>
        <ellipse class="cls-1" cx="212.99" cy="149.93" rx="1.41" ry="3.25" transform="translate(-46.43 126.58) rotate(-30)"/>
        <ellipse class="cls-1" cx="214.02" cy="128.84" rx="3.25" ry="1.41" transform="translate(-4.57 249.77) rotate(-60)"/>
        <ellipse class="cls-1" cx="194.69" cy="149.93" rx="3.25" ry="1.41" transform="translate(-32.5 243.57) rotate(-60)"/>
        <path class="cls-7" d="M212.35,132.77c1.25,2.7.33,5.75-.1,5.78-.3.02-.29-1.46-1.54-3.47-.26-.42-.88-1.36-1.93-2.31-.53-.48-1.66-1.5-3.37-2.12-1.97-.71-3.34-.4-3.37-.67-.05-.37,2.25-1.47,4.72-1.16,2.13.27,4.5,1.61,5.59,3.95Z"/>
      </g>
    </g>
    <g>
      <ellipse class="cls-1" cx="249.55" cy="210.08" rx="1.43" ry="3.69"/>
      <g>
        <circle class="cls-3" cx="249.55" cy="223.33" r="11.7"/>
        <ellipse class="cls-1" cx="249.55" cy="236.42" rx="1.43" ry="3.69"/>
        <ellipse class="cls-1" cx="262.94" cy="221.95" rx="4.41" ry="1.37"/>
        <ellipse class="cls-1" cx="236.71" cy="222.23" rx="4.41" ry="1.37"/>
        <ellipse class="cls-1" cx="239.39" cy="213.77" rx="1.41" ry="3.25" transform="translate(-74.81 148.33) rotate(-30)"/>
        <ellipse class="cls-1" cx="258.41" cy="234.31" rx="1.41" ry="3.25" transform="translate(-82.53 160.59) rotate(-30)"/>
        <ellipse class="cls-1" cx="259.44" cy="213.22" rx="3.25" ry="1.41" transform="translate(-54.94 331.29) rotate(-60)"/>
        <ellipse class="cls-1" cx="240.11" cy="234.31" rx="3.25" ry="1.41" transform="translate(-82.86 325.1) rotate(-60)"/>
        <path class="cls-7" d="M257.77,217.15c1.25,2.7.33,5.75-.1,5.78-.3.02-.29-1.46-1.54-3.47-.26-.42-.88-1.36-1.93-2.31-.53-.48-1.66-1.5-3.37-2.12-1.97-.71-3.34-.4-3.37-.67-.05-.37,2.25-1.47,4.72-1.16,2.13.27,4.5,1.61,5.59,3.95Z"/>
      </g>
    </g>
    <g>
      <ellipse class="cls-1" cx="158.8" cy="200.6" rx="1.43" ry="3.69"/>
      <g>
        <circle class="cls-3" cx="158.8" cy="213.84" r="11.7"/>
        <ellipse class="cls-1" cx="158.8" cy="226.94" rx="1.43" ry="3.69"/>
        <ellipse class="cls-1" cx="172.2" cy="212.47" rx="4.41" ry="1.37"/>
        <ellipse class="cls-1" cx="145.97" cy="212.74" rx="4.41" ry="1.37"/>
        <ellipse class="cls-1" cx="148.64" cy="204.28" rx="1.41" ry="3.25" transform="translate(-82.23 101.69) rotate(-30)"/>
        <ellipse class="cls-1" cx="167.66" cy="224.82" rx="1.41" ry="3.25" transform="translate(-89.95 113.95) rotate(-30)"/>
        <ellipse class="cls-1" cx="168.69" cy="203.74" rx="3.25" ry="1.41" transform="translate(-92.1 247.96) rotate(-60)"/>
        <ellipse class="cls-1" cx="149.36" cy="224.82" rx="3.25" ry="1.41" transform="translate(-120.02 241.76) rotate(-60)"/>
        <path class="cls-7" d="M167.02,207.67c1.25,2.7.33,5.75-.1,5.78-.3.02-.29-1.46-1.54-3.47-.26-.42-.88-1.36-1.93-2.31-.53-.48-1.66-1.5-3.37-2.12-1.97-.71-3.34-.4-3.37-.67-.05-.37,2.25-1.47,4.72-1.16,2.13.27,4.5,1.61,5.59,3.95Z"/>
      </g>
    </g>
    <path class="cls-6" d="M95.53,122.01c0,53.48,0,106.95,0,160.43"/>
    <path class="cls-6" d="M47.78,95.68c0,53.48,0,106.95,0,160.43"/>
    <text class="cls-4" transform="translate(15.15 129.82)"><tspan x="0" y="0">1</tspan></text>
    <text class="cls-4" transform="translate(61 205.91)"><tspan x="0" y="0">6</tspan></text>
    <text class="cls-4" transform="translate(11.01 233.27)"><tspan x="0" y="0">8</tspan></text>
    <text class="cls-4" transform="translate(104.47 280.87)"><tspan x="0" y="0">9</tspan></text>
    <path class="cls-7" d="M136.12,17.04c31.9,16.41,80.76,41.67,112.24,57.97,0,0,3.27,1.69,3.27,1.69-4.17,2.13-8.5,4.33-12.68,6.39-21.88,10.85-44.1,21.04-66.66,30.43,0,0-.18-.36-.18-.36,12.15-6.89,24.5-13.4,36.92-19.78,12.41-6.38,24.94-12.52,37.6-18.4,0,0-.06,3.39-.06,3.39-30.91-17.03-79.43-43.66-110.63-60.97,0,0,.19-.35.19-.35h0Z"/>
  </g>
</svg>